Coordinates
version=1
nRows=11
nColumns=46
inDegrees=yes

Units are S.I. units (second, meters, Newtons, ...)
Angles are in degrees.

endheader
time	pelvis_tilt	pelvis_list	pelvis_rotation	pelvis_tx	pelvis_ty	pelvis_tz	bb_angle	bb_tx	bb_ty	bb_tz	hip_flexion_r	hip_adduction_r	hip_rotation_r	knee_angle_r	knee_angle_r_beta	ankle_angle_r	subtalar_angle_r	mtp_angle_r	crank_angle_r	hip_flexion_l	hip_adduction_l	hip_rotation_l	knee_angle_l	knee_angle_l_beta	ankle_angle_l	subtalar_angle_l	mtp_angle_l	crank_angle_l	lumbar_extension	lumbar_bending	lumbar_rotation	arm_flex_r	arm_add_r	arm_rot_r	elbow_flex_r	pro_sup_r	wrist_flex_r	wrist_dev_r	arm_flex_l	arm_add_l	arm_rot_l	elbow_flex_l	pro_sup_l	wrist_flex_l	wrist_dev_l
      5.00000000	    -38.56017702	     -8.13910924	    -16.28487684	      0.34965064	      1.10474932	     -0.23566309	      0.00000000	      0.50000000	      0.00000000	      0.25000000	     85.43368142	      8.90683317	     -3.11335105	     83.97925711	      1.46571454	      5.53909002	      1.99212860	      0.00000000	      0.00000000	     43.27943941	    -17.84611792	     -4.76306727	     37.87354143	      0.66101800	    -39.40687019	    -18.98417680	      0.00000000	      0.00000000	    -60.31286154	      0.64575562	      2.98704685	     65.89869015	    -12.98345658	     35.35209269	     99.89196659	     54.40409763	      0.00000000	      0.00000000	     26.06981848	    -23.17182811	    -12.49886585	    126.04380780	     53.62191482	      0.00000000	      0.00000000
      5.00500000	    -38.97079966	     -7.65862530	    -16.16342708	      0.34934536	      1.10517222	     -0.23527039	      0.00000000	      0.50000000	      0.00000000	      0.25000000	     84.15105296	      8.81178316	     -2.87314844	     80.92935073	      1.41248363	      7.08750437	      1.84612197	      0.00000000	      0.00000000	     44.67288379	    -17.25210050	     -3.58938125	     40.18249964	      0.70131692	    -39.41517889	    -19.41691809	      0.00000000	      0.00000000	    -59.93203839	      0.25462666	      3.45557537	     64.04370548	    -12.98236200	     33.07064860	    101.46423241	     54.39591353	      0.00000000	      0.00000000	     27.17558675	    -22.73604027	    -10.77732462	    125.42831208	     53.81231438	      0.00000000	      0.00000000
      5.01000000	    -38.95166874	     -6.97149710	    -15.97420252	      0.34951910	      1.10604394	     -0.23501947	      0.00000000	      0.50000000	      0.00000000	      0.25000000	     82.38705932	      8.55150608	     -2.43890306	     77.74137068	      1.35684288	      8.27947739	      1.36212369	      0.00000000	      0.00000000	     45.56232833	    -16.43101083	     -2.86702000	     42.44454438	      0.74079705	    -39.38160292	    -19.74651185	      0.00000000	      0.00000000	    -59.92574920	     -0.25490464	      2.93382811	     63.74479142	    -13.10739423	     32.96052546	    101.62806587	     54.41190003	      0.00000000	      0.00000000	     27.42648420	    -22.83524498	    -10.59362237	    125.27062381	     53.81162747	      0.00000000	      0.00000000
      5.01500000	    -39.12790304	     -6.52411177	    -15.51740128	      0.34961520	      1.10607547	     -0.23513819	      0.00000000	      0.50000000	      0.00000000	      0.25000000	     80.74853250	      8.05469244	     -2.46757952	     74.39003976	      1.29835112	      8.90614870	      0.39310403	      0.00000000	      0.00000000	     46.97647573	    -15.67566393	     -1.88232601	     45.20231822	      0.78892928	    -39.31420037	    -20.33030495	      0.00000000	      0.00000000	    -59.60853691	     -0.56771468	      4.35562987	     61.76884027	    -14.93438655	     30.59070720	    104.23474722	     54.54358595	      0.00000000	      0.00000000	     29.93843166	    -22.21677743	     -7.24949499	    123.42977951	     54.00502756	      0.00000000	      0.00000000
      5.02000000	    -39.03943975	     -5.51007339	    -15.16767877	      0.34999425	      1.10627126	     -0.23507630	      0.00000000	      0.50000000	      0.00000000	      0.25000000	     78.99880409	      7.38813908	     -2.04425861	     71.03361998	      1.23977055	      9.24985719	      0.13841370	      0.00000000	      0.00000000	     47.94616948	    -14.47963407	     -1.48421399	     47.71876597	      0.83284958	    -39.15604089	    -20.65664642	      0.00000000	      0.00000000	    -59.50459325	     -1.18675159	      3.53459507	     61.46548984	    -15.18046765	     30.49485193	    104.34040978	     54.55230451	      0.00000000	      0.00000000	     30.09633889	    -22.30252126	     -7.17907829	    123.27793183	     53.98940700	      0.00000000	      0.00000000
      5.02500000	    -39.18838932	     -4.82805053	    -14.83808887	      0.34991258	      1.10578865	     -0.23492134	      0.00000000	      0.50000000	      0.00000000	      0.25000000	     77.42503304	      6.93542277	     -1.88760101	     67.50887750	      1.17825219	      9.35184280	     -0.05993922	      0.00000000	      0.00000000	     49.40843378	    -13.65539461	     -0.94720892	     50.65330834	      0.88406701	    -38.91640495	    -21.25359483	      0.00000000	      0.00000000	    -59.11961202	     -1.76625530	      4.60138661	     59.78528185	    -17.19996396	     28.74218340	    106.61559174	     54.66685090	      0.00000000	      0.00000000	     32.26649033	    -21.97140979	     -4.50229330	    121.64341482	     54.10709315	      0.00000000	      0.00000000
      5.03000000	    -39.05554494	     -3.80166417	    -14.36039150	      0.35052056	      1.10548137	     -0.23504976	      0.00000000	      0.50000000	      0.00000000	      0.25000000	     75.62926716	      6.14696706	     -1.39864112	     64.12584020	      1.11920705	      9.28048262	     -0.02082826	      0.00000000	      0.00000000	     50.47155320	    -12.42410491	     -0.73213186	     53.33287796	      0.93083432	    -38.52051623	    -21.47901251	      0.00000000	      0.00000000	    -59.01764867	     -2.28678638	      3.73184506	     59.45746210	    -17.52615340	     28.60483414	    106.74786961	     54.67346511	      0.00000000	      0.00000000	     32.50240463	    -22.22700719	     -4.37355346	    121.48989946	     54.09744373	      0.00000000	      0.00000000
      5.03500000	    -39.11302546	     -2.85881791	    -13.82411157	      0.35061177	      1.10443800	     -0.23515358	      0.00000000	      0.50000000	      0.00000000	      0.25000000	     74.07749448	      5.31632493	     -1.08453559	     60.77422836	      1.06071039	      8.78502839	     -0.43137694	      0.00000000	      0.00000000	     51.91439652	    -11.29289067	     -0.41437315	     56.19624332	      0.98080947	    -38.02162961	    -21.36770221	      0.00000000	      0.00000000	    -58.71201660	     -2.71328977	      3.12871909	     58.86948235	    -18.19357694	     28.20635477	    107.35965437	     54.72353159	      0.00000000	      0.00000000	     32.98433713	    -23.19649611	     -3.44489657	    121.14983438	     54.15879145	      0.00000000	      0.00000000
      5.04000000	    -39.06470675	     -1.88479539	    -13.16419636	      0.35164165	      1.10371289	     -0.23481067	      0.00000000	      0.50000000	      0.00000000	      0.25000000	     72.35212826	      4.27772257	     -0.87051914	     57.43430610	      1.00241775	      8.30733363	     -0.13795663	      0.00000000	      0.00000000	     53.07035963	    -10.11505118	     -0.24591584	     58.74374515	      1.02527177	    -37.38681476	    -21.21135851	      0.00000000	      0.00000000	    -58.61467085	     -3.21200515	      2.37587703	     58.21412003	    -18.70610146	     27.95890803	    107.79406286	     54.76946385	      0.00000000	      0.00000000	     33.33131647	    -23.42561596	     -2.85039065	    120.96275531	     54.20188306	      0.00000000	      0.00000000
      5.04500000	    -39.02866361	     -0.95332683	    -12.54246922	      0.35198094	      1.10235147	     -0.23479990	      0.00000000	      0.50000000	      0.00000000	      0.25000000	     70.82804094	      3.33203245	     -0.39902076	     54.33869932	      0.94838921	      7.67519366	      0.36066407	      0.00000000	      0.00000000	     54.41413484	     -9.01779007	     -0.10612214	     61.53274443	      1.07394899	    -36.54768721	    -20.66292765	      0.00000000	      0.00000000	    -58.31595022	     -4.01107831	      3.59783758	     55.62234819	    -21.96593232	     25.46465367	    111.29178115	     54.99542753	      0.00000000	      0.00000000	     36.36936360	    -22.64604155	      1.73484812	    118.47999205	     54.34290322	      0.00000000	      0.00000000
      5.05000000	    -38.86434066	      0.04586633	    -11.87573433	      0.35249136	      1.10127732	     -0.23469785	      0.00000000	      0.50000000	      0.00000000	      0.25000000	     69.21167005	      2.28189765	      0.07211378	     51.32445543	      0.89578073	      6.85974186	      0.95183114	      0.00000000	      0.00000000	     55.55219685	     -7.82517201	     -0.12098380	     64.13022862	      1.11928364	    -35.85575758	    -20.52261418	      0.00000000	      0.00000000	    -58.19370630	     -4.45642732	      2.54994006	     55.18063793	    -22.25293416	     25.43993839	    111.44255536	     55.01857512	      0.00000000	      0.00000000	     36.62607967	    -22.89361417	      1.91838503	    118.42513729	     54.35257654	      0.00000000	      0.00000000
